# xmcd
#
# Track frame offsets:
#	150
#	14787
#	29677
#	43230
#	58864
#	67115
#	83015
#	98675
#	110122
#	118895
#	130207
#	144095
#	153005
#	162095
#
# Disc length: 2350 seconds
#
# Revision: 0
# Processed by: cddbd v1.4PL0 Copyright (c) Steve Scherf et al.
# Submitted via: EasyCDDAExtractor 4.6.0.1
#
DISCID=c4092c0e
DTITLE=Billy Holiday - Lady Day 1
DYEAR=1900
DGENRE=
TTITLE0=Lover Man
TTITLE1=Don't Explain
TTITLE2=Foolin' Myself
TTITLE3=You've Changed
TTITLE4=Swing, Brother, Swing
TTITLE5=Willow Weep For Me
TTITLE6=Stormy Weather
TTITLE7=Nice Work If You can Get It
TTITLE8=Please Don't Talk About Me When I'm Gone
TTITLE9=I Loves You porgy
TTITLE10=Moanin' Low
TTITLE11=When Your Lover Has Gone
TTITLE12=What A Little Moonlight Can Do
TTITLE13=God Bless The Child
EXTD=
EXTT0=
EXTT1=
EXTT2=
EXTT3=
EXTT4=
EXTT5=
EXTT6=
EXTT7=
EXTT8=
EXTT9=
EXTT10=
EXTT11=
EXTT12=
EXTT13=
PLAYORDER=
